<svg width="898" height="1181" viewBox="0 0 898 1181" fill="none" xmlns="http://www.w3.org/2000/svg">
<path opacity="0.1" fill-rule="evenodd" clip-rule="evenodd" d="M793.423 78.9589C860.483 159.982 821.674 282.365 825.151 387.483C826.949 441.849 811.922 492.754 808.905 547.067C806.409 592.021 801.453 635.435 808.914 679.837C828.543 796.654 928.959 908.705 888.373 1019.99C852.628 1118 730.477 1182.93 626.172 1180.91C520.863 1178.86 423.129 1098.94 366.904 1009.87C316.162 929.49 406.656 800.306 341.95 730.672C260.727 643.262 57.4672 730.796 7.07788 622.636C-34.4167 533.567 122.468 469.726 185.117 394.029C231.862 337.548 281.303 288.352 329.481 233.087C393.591 159.546 423.63 44.9811 516.217 14.2224C607.827 -16.2117 731.873 4.59341 793.423 78.9589Z" fill="#643484"/>
</svg>
