<?xml version="1.0" encoding="UTF-8"?>
<!DOCTYPE svg PUBLIC "-//W3C//DTD SVG 1.1//EN" "http://www.w3.org/Graphics/SVG/1.1/DTD/svg11.dtd">
<!-- Creator: CorelDRAW X7 -->
<svg xmlns="http://www.w3.org/2000/svg" xml:space="preserve" width="540px" height="129px" version="1.1" style="shape-rendering:geometricPrecision; text-rendering:geometricPrecision; image-rendering:optimizeQuality; fill-rule:evenodd; clip-rule:evenodd"
viewBox="0 0 595993 142795"
 xmlns:xlink="http://www.w3.org/1999/xlink">
 <defs>
  <style type="text/css">
   <![CDATA[
    .fil3 {fill:#9D9E9E}
    .fil4 {fill:#F05921}
    .fil0 {fill:#2B2A29;fill-rule:nonzero}
    .fil1 {fill:#603085;fill-rule:nonzero}
    .fil2 {fill:#E75524;fill-rule:nonzero}
   ]]>
  </style>
 </defs>
 <g id="Layer_x0020_1">
  <metadata id="CorelCorpID_0Corel-Layer"/>
  <g id="_771303376">
   <path class="fil0" d="M236007 136387l0 -9170 -8005 -12664 5094 0 5095 8732 5096 -8732 5094 0 -8005 12664 0 9170 -4366 0 -3 0zm11209 -8149c0,-1310 436,-2621 1019,-3929 728,-1310 1746,-2329 2911,-3058 1308,-582 2621,-1019 4221,-1019 2329,0 4367,873 5822,2329 1602,1602 2328,3493 2328,5821 0,2475 -729,4366 -2328,5967 -1455,1602 -3493,2329 -5822,2329 -1454,0 -2764,-291 -4075,-873 -1310,-729 -2329,-1602 -3057,-2911 -583,-1309 -1019,-2764 -1019,-4658l0 2zm4365 290c0,1602 291,2764 1019,3494 730,872 1746,1308 2766,1308 1165,0 2038,-436 2765,-1308 728,-730 1165,-2038 1165,-3494 0,-1601 -437,-2765 -1165,-3640 -730,-873 -1602,-1165 -2765,-1165 -1020,0 -2039,291 -2766,1165 -728,873 -1019,2039 -1019,3640zm25619 7859l0 -2328c-583,728 -1456,1455 -2329,1892 -872,582 -1891,729 -2910,729 -1165,0 -2038,-147 -2911,-583 -873,-583 -1454,-1165 -1745,-2038 -436,-872 -582,-2037 -582,-3493l0 -9897 4075 0 0 7132c0,2329 147,3640 290,4076 146,583 437,873 873,1310 291,289 873,435 1456,435 728,0 1454,-289 1891,-728 582,-291 1019,-872 1165,-1309 290,-582 436,-2038 436,-4366l0 -6550 4077 0 0 15718 -3783 0 -3 0zm12080 0l-4076 0 0 -15718 3783 0 0 2184c728,-1019 1309,-1746 1746,-2038 582,-437 1165,-583 1892,-583 872,0 1891,291 2764,873l-1310 3639c-728,-581 -1308,-729 -2038,-729 -581,0 -1018,148 -1454,437 -437,290 -729,873 -873,1746 -291,873 -437,2621 -437,5239l0 4948 3 2zm20230 0l-4075 0 0 -15718 3783 0 0 2184c729,-1019 1308,-1746 1892,-2038 435,-437 1019,-583 1745,-583 1019,0 1892,291 2765,873l-1309 3639c-729,-581 -1310,-729 -1893,-729 -582,0 -1165,148 -1601,437 -291,290 -729,873 -872,1746 -291,873 -437,2621 -437,5239l0 4948 2 2zm17031 -5092l4075 728c-437,1602 -1310,2764 -2475,3494 -1165,872 -2619,1165 -4365,1165 -2621,0 -4659,-873 -5968,-2621 -1165,-1455 -1601,-3203 -1601,-5384 0,-2621 728,-4659 2038,-6259 1308,-1454 3056,-2184 5239,-2184 2327,0 4076,873 5530,2329 1310,1601 1892,3930 1892,7132l-10480 0c0,1309 437,2184 1019,2911 729,729 1456,1019 2475,1019 583,0 1165,-146 1602,-583 435,-290 728,-873 1019,-1746l0 -1zm292 -4222c-146,-1165 -437,-2038 -1019,-2621 -583,-729 -1310,-1019 -2184,-1019 -873,0 -1602,290 -2185,1019 -582,583 -873,1602 -873,2621l6258 0 3 0zm10623 -1602l-3783 -729c436,-1601 1165,-2620 2184,-3346 1019,-730 2621,-1166 4659,-1166 1745,0 3202,290 4075,728 873,438 1602,1019 1892,1603 437,729 583,1891 583,3783l0 4802c0,1456 0,2475 146,3057 146,729 436,1456 728,2184l-4075 0c-147,-290 -290,-728 -436,-1309 0,-146 0,-291 -148,-437 -728,730 -1454,1165 -2184,1602 -872,290 -1745,437 -2619,437 -1602,0 -2911,-437 -3930,-1309 -872,-873 -1310,-1892 -1310,-3348 0,-873 147,-1601 584,-2328 435,-729 1019,-1165 1745,-1602 873,-435 1892,-728 3347,-1019 2037,-289 3347,-727 4075,-1018l0 -436c0,-729 -146,-1310 -582,-1602 -437,-436 -1165,-582 -2184,-582 -872,0 -1309,146 -1745,436 -437,291 -729,872 -1019,1602l-3 -3zm5532 3349c-583,146 -1310,437 -2475,583 -1165,290 -2038,582 -2327,728 -584,437 -873,873 -873,1456 0,582 289,1165 728,1601 437,437 1019,583 1602,583 728,0 1454,-290 2184,-729 582,-436 873,-873 1019,-1309 146,-437 146,-1165 146,-2038l0 -872 -4 -3zm8151 7567l0 -21832 4222 0 0 21832 -4222 0zm26053 -5092l4222 728c-583,1602 -1456,2764 -2621,3494 -1165,872 -2621,1165 -4222,1165 -2764,0 -4802,-873 -6113,-2621 -1019,-1455 -1602,-3203 -1602,-5384 0,-2621 729,-4659 2038,-6259 1309,-1454 3056,-2184 5239,-2184 2327,0 4075,873 5530,2329 1310,1601 2039,3930 1893,7132l-10480 0c146,1309 436,2184 1019,2911 728,729 1455,1019 2474,1019 583,0 1165,-146 1602,-583 435,-290 872,-873 1019,-1746l2 -1zm292 -4222c-146,-1165 -437,-2038 -1018,-2621 -584,-729 -1310,-1019 -2186,-1019 -872,0 -1600,290 -2184,1019 -581,583 -872,1602 -872,2621l6258 0 2 0zm5968 4802l4221 -583c147,730 584,1310 1165,1746 438,437 1310,729 2184,729 1165,0 1892,-291 2475,-583 290,-290 582,-728 582,-1165 0,-290 -146,-582 -290,-873 -290,-146 -729,-289 -1455,-436 -3347,-729 -5531,-1456 -6404,-2037 -1165,-873 -1891,-2039 -1891,-3640 0,-1310 582,-2475 1601,-3348 1165,-1019 2764,-1455 5094,-1455 2185,0 3785,436 4804,1019 1019,728 1745,1746 2184,3203l-3930 729c-146,-583 -583,-1166 -1019,-1455 -437,-290 -1166,-436 -2039,-436 -1019,0 -1892,146 -2327,436 -291,146 -437,437 -437,872 0,290 146,583 437,730 289,289 1600,728 3929,1165 2184,435 3640,1165 4513,1891 873,728 1308,1746 1308,3057 0,1455 -582,2764 -1745,3783 -1165,1019 -3057,1456 -5384,1456 -2040,0 -3785,-437 -5096,-1309 -1165,-873 -2038,-2038 -2474,-3494l-6 -2zm25616 -11206l0 3203 -2765 0 0 6404c0,1309 0,2038 0,2327 146,147 146,291 436,437 146,147 437,290 729,290 290,0 873,-146 1601,-436l437 3203c-1019,436 -2184,583 -3348,583 -727,0 -1454,-147 -2037,-291 -582,-289 -1019,-583 -1309,-1018 -291,-438 -437,-873 -583,-1603 -146,-435 -146,-1454 -146,-2910l0 -6986 -1892 0 0 -3203 1892 0 0 -3203 4222 -2475 0 5678 2764 0 -1 0zm5967 4802l-3783 -729c435,-1601 1165,-2620 2327,-3346 1019,-730 2475,-1166 4513,-1166 1891,0 3347,290 4222,728 872,438 1602,1019 1891,1603 437,729 583,1891 583,3783l0 4802c0,1456 0,2475 146,3057 147,729 436,1456 728,2184l-4075 0c-146,-290 -290,-728 -436,-1309 0,-146 -146,-291 -146,-437 -729,730 -1456,1165 -2329,1602 -728,290 -1601,437 -2619,437 -1602,0 -2765,-437 -3784,-1309 -873,-873 -1456,-1892 -1456,-3348 0,-873 290,-1601 730,-2328 435,-729 1018,-1165 1745,-1602 728,-435 1892,-728 3346,-1019 1892,-289 3348,-727 4076,-1018l0 -436c0,-729 -290,-1310 -582,-1602 -437,-436 -1165,-582 -2329,-582 -728,0 -1308,146 -1745,436 -290,291 -728,872 -1019,1602l-4 -3zm5678 3349c-583,146 -1456,437 -2621,583 -1165,290 -1892,582 -2184,728 -583,437 -873,873 -873,1456 0,582 290,1165 729,1601 436,437 873,583 1601,583 729,0 1456,-290 2184,-729 437,-436 873,-873 1019,-1309 0,-437 146,-1165 146,-2038l0 -872 -1 -3zm15428 -8151l0 3203 -2910 0 0 6404c0,1309 0,2038 146,2327 0,147 146,291 289,437 291,147 437,290 730,290 435,0 1018,-146 1745,-436l290 3203c-1019,436 -2038,583 -3347,583 -729,0 -1309,-147 -1891,-291 -730,-289 -1165,-583 -1456,-1018 -290,-438 -436,-873 -582,-1603 0,-435 -148,-1454 -148,-2910l0 -6986 -1891 0 0 -3203 1891 0 0 -3203 4224 -2475 0 5678 2910 0zm11935 10626l4221 728c-581,1602 -1454,2764 -2619,3494 -1019,872 -2475,1165 -4222,1165 -2764,0 -4804,-873 -6115,-2621 -1019,-1455 -1600,-3203 -1600,-5384 0,-2621 728,-4659 2037,-6259 1455,-1454 3203,-2184 5238,-2184 2329,0 4223,873 5532,2329 1310,1601 2038,3930 1892,7132l-10334 0c0,1309 291,2184 1019,2911 583,729 1310,1019 2328,1019 730,0 1165,-146 1602,-583 436,-290 873,-873 1019,-1746l2 -1zm291 -4222c0,-1165 -291,-2038 -873,-2621 -729,-729 -1456,-1019 -2184,-1019 -1020,0 -1746,290 -2329,1019 -583,583 -873,1602 -873,2621l6259 0zm15574 10333l4802 583c0,583 290,873 582,1165 291,291 1020,437 1746,437 1166,0 1893,-146 2475,-437 437,-290 729,-582 872,-1165 147,-290 147,-873 147,-1892l0 -2329c-1165,1746 -2765,2621 -4659,2621 -2184,0 -3784,-872 -5095,-2764 -873,-1310 -1454,-3057 -1454,-5239 0,-2620 728,-4658 1891,-5968 1309,-1454 2911,-2184 4803,-2184 1891,0 3492,873 4802,2621l0 -2184 3929 0 0 14119c0,1892 -146,3203 -435,4076 -291,1018 -730,1745 -1310,2183 -582,584 -1309,1019 -2184,1310 -1019,290 -2184,436 -3640,436 -2620,0 -4511,-436 -5678,-1455 -1019,-872 -1600,-2037 -1600,-3493 0,0 0,-290 0,-436l6 -5zm3783 -9168c0,1601 290,2765 873,3639 728,729 1455,1165 2474,1165 1020,0 1893,-436 2475,-1165 729,-873 1165,-2038 1165,-3639 0,-1602 -436,-2764 -1019,-3640 -728,-729 -1601,-1165 -2621,-1165 -1019,0 -1746,436 -2474,1165 -583,730 -873,2038 -873,3640zm25472 8149l0 -2328c-582,728 -1309,1455 -2184,1892 -1019,582 -1892,729 -3057,729 -1019,0 -1892,-147 -2764,-583 -873,-583 -1456,-1165 -1892,-2038 -290,-872 -437,-2037 -437,-3493l0 -9897 4077 0 0 7132c0,2329 146,3640 289,4076 147,583 437,873 730,1310 435,289 1019,435 1600,435 730,0 1310,-289 1892,-728 583,-291 1019,-872 1165,-1309 291,-582 291,-2038 291,-4366l0 -6550 4222 0 0 15718 -3930 0 -2 0zm8296 -17902l0 -3930 4075 0 0 3930 -4075 0zm0 17902l0 -15718 4075 0 0 15718 -4075 0zm22851 0l-3929 0 0 -2328c-583,873 -1310,1601 -2184,2038 -873,436 -1746,583 -2765,583 -1745,0 -3347,-729 -4658,-2185 -1165,-1455 -1892,-3492 -1892,-6113 0,-2621 728,-4659 1892,-5968 1308,-1456 2910,-2184 4802,-2184 1746,0 3203,728 4513,2184l0 -7859 4221 0 0 21832zm-11206 -8295c0,1746 291,2911 729,3783 728,1019 1601,1601 2911,1601 872,0 1745,-436 2327,-1308 729,-730 1019,-2038 1019,-3640 0,-1746 -290,-3057 -873,-3930 -728,-729 -1601,-1165 -2620,-1165 -872,0 -1745,436 -2474,1165 -582,873 -1019,2038 -1019,3494zm24453 3203l4076 728c-437,1602 -1310,2764 -2475,3494 -1165,872 -2621,1165 -4366,1165 -2765,0 -4803,-873 -6114,-2621 -1019,-1455 -1454,-3203 -1454,-5384 0,-2621 581,-4659 2037,-6259 1309,-1454 3057,-2184 5095,-2184 2329,0 4222,873 5531,2329 1455,1601 2038,3930 2038,7132l-10480 0c0,1309 436,2184 1019,2911 582,729 1455,1019 2475,1019 582,0 1165,-146 1601,-583 437,-290 729,-873 1019,-1746l-2 -1zm144 -4222c0,-1165 -291,-2038 -873,-2621 -583,-729 -1310,-1019 -2184,-1019 -873,0 -1602,290 -2184,1019 -583,583 -873,1602 -873,2621l6114 0zm7569 9314l0 -4222 4222 0 0 4222 -4222 0zm8442 0l0 -4222 4222 0 0 4222 -4222 0zm8441 0l0 -4222 4223 0 0 4222 -4223 0zm8442 0l0 -4222 4222 0 0 4222 -4222 0zm8443 0l0 -4222 4221 0 0 4222 -4221 0zm8442 0l0 -4222 4221 0 0 4222 -4221 0z"/>
   <path class="fil1" d="M8874 49926l0 17031c2869,-3317 6275,-5021 10308,-5021 2061,0 3854,449 5557,1165 1614,718 2869,1703 3675,2869 807,1255 1434,2510 1703,3944 269,1434 449,3675 449,6723l0 19630 -8874 0 0 -17748c0,-3496 -179,-5736 -538,-6632 -268,-987 -896,-1703 -1792,-2330 -806,-538 -1883,-807 -3138,-807 -1524,0 -2869,359 -3944,1075 -1165,718 -2061,1793 -2600,3227 -537,1434 -806,3585 -806,6454l0 16761 -8874 0 0 -46342 8874 0 0 1zm59966 22768l-8695 1524c-359,-1702 -986,-3047 -2061,-3944 -986,-896 -2330,-1345 -4034,-1345 -2241,0 -3944,806 -5289,2330 -1345,1524 -1972,4034 -1972,7619 0,4034 627,6813 1972,8515 1345,1614 3138,2420 5378,2420 1702,0 3137,-448 4212,-1433 1075,-987 1793,-2600 2242,-4930l8695 1433c-896,4034 -2600,7082 -5199,9143 -2600,2061 -6005,3048 -10308,3048 -4930,0 -8874,-1524 -11742,-4662 -2958,-3137 -4393,-7350 -4393,-12908 0,-5467 1434,-9860 4393,-12907 2957,-3138 6901,-4662 11921,-4662 4034,0 7260,896 9680,2689 2420,1703 4213,4393 5199,8068l1 2zm4752 6364c0,-2957 717,-5826 2151,-8605 1434,-2779 3497,-4840 6185,-6275 2689,-1524 5648,-2242 8964,-2242 5021,0 9233,1703 12459,4931 3227,3316 4841,7529 4841,12549 0,5109 -1614,9322 -4931,12639 -3226,3316 -7350,5020 -12370,5020 -3048,0 -6005,-718 -8784,-2061 -2779,-1434 -4930,-3497 -6364,-6186 -1434,-2688 -2151,-5916 -2151,-9770zm9053 449c0,3316 806,5916 2420,7619 1523,1792 3496,2689 5826,2689 2330,0 4303,-897 5826,-2689 1614,-1703 2330,-4303 2330,-7709 0,-3226 -717,-5826 -2330,-7529 -1523,-1792 -3496,-2689 -5826,-2689 -2330,0 -4303,897 -5826,2689 -1614,1703 -2420,4303 -2420,7619zm167171 6095l8874 1524c-1075,3226 -2869,5736 -5377,7350 -2420,1703 -5558,2600 -9233,2600 -5826,0 -10129,-1882 -12908,-5736 -2241,-3048 -3316,-6902 -3316,-11563 0,-5558 1434,-9949 4302,-13087 2958,-3137 6633,-4750 11026,-4750 5020,0 8964,1703 11831,4931 2958,3316 4303,8425 4213,15237l-22319 0c90,2600 806,4662 2151,6096 1345,1523 3137,2241 5109,2241 1433,0 2600,-359 3496,-1165 986,-718 1703,-1973 2151,-3675l0 -3zm538 -8964c-90,-2600 -718,-4571 -1973,-5916 -1255,-1255 -2779,-1973 -4661,-1973 -1883,0 -3496,718 -4750,2151 -1255,1346 -1883,3317 -1883,5737l13267 0 0 1zm12908 10039l8964 -1345c358,1793 1165,3048 2330,3944 1165,896 2779,1345 4840,1345 2330,0 4034,-359 5199,-1255 806,-538 1165,-1345 1165,-2330 0,-718 -179,-1255 -628,-1703 -449,-448 -1434,-806 -2957,-1165 -7172,-1613 -11743,-3047 -13624,-4302 -2689,-1883 -4034,-4393 -4034,-7619 0,-2869 1165,-5378 3496,-7350 2241,-1973 5826,-2958 10667,-2958 4571,0 7977,806 10219,2241 2241,1524 3765,3766 4661,6633l-8425 1614c-359,-1345 -986,-2330 -2061,-3048 -987,-717 -2421,-986 -4213,-986 -2330,0 -4034,269 -5020,896 -718,538 -1075,1075 -1075,1883 0,627 359,1165 896,1614 806,537 3585,1345 8337,2420 4750,1075 7977,2420 9860,4034 1882,1523 2779,3765 2779,6543 0,3138 -1255,5737 -3854,7978 -2510,2242 -6364,3317 -11384,3317 -4572,0 -8157,-987 -10847,-2779 -2689,-1883 -4392,-4393 -5289,-7619l-2 -3zm54589 -23932l0 7082 -6096 0 0 13535c0,2689 90,4303 179,4750 179,449 359,806 806,1165 449,269 897,449 1524,449 806,0 1973,-359 3585,-896l718 6901c-2061,896 -4393,1345 -6992,1345 -1613,0 -3047,-269 -4392,-806 -1255,-538 -2152,-1255 -2779,-2061 -628,-897 -986,-2062 -1255,-3497 -179,-1075 -269,-3137 -269,-6275l0 -14610 -4124 0 0 -7082 4124 0 0 -6722 8874 -5199 0 11921 6095 0 2 0zm12817 10218l-8067 -1434c896,-3226 2420,-5647 4661,-7260 2241,-1524 5558,-2330 9860,-2330 3944,0 6902,538 8874,1434 1973,896 3317,2151 4124,3585 718,1434 1165,4034 1165,7978l-90 10307c0,2958 90,5199 449,6544 269,1434 806,2958 1524,4482l-8784 0c-179,-538 -449,-1434 -806,-2600 -179,-538 -269,-897 -359,-1075 -1524,1523 -3138,2600 -4840,3406 -1703,717 -3585,1075 -5558,1075 -3406,0 -6185,-986 -8156,-2779 -1973,-1882 -2958,-4303 -2958,-7171 0,-1883 449,-3585 1345,-5109 896,-1434 2151,-2600 3765,-3407 1703,-717 4034,-1433 7082,-2061 4212,-717 7081,-1524 8695,-2151l0 -896c0,-1703 -449,-2958 -1345,-3676 -806,-717 -2420,-1075 -4750,-1075 -1614,0 -2779,359 -3675,987 -897,537 -1614,1702 -2152,3226l-4 0zm11922 7172c-1165,448 -2958,896 -5468,1433 -2420,538 -4034,987 -4840,1524 -1165,806 -1702,1883 -1702,3138 0,1255 448,2330 1345,3226 986,896 2151,1345 3585,1345 1614,0 3137,-537 4571,-1614 1075,-806 1793,-1702 2151,-2869 179,-806 359,-2241 359,-4392l0 -1793 -1 2zm32807 -17390l0 7082 -6005 0 0 13535c0,2689 0,4303 179,4750 90,449 358,806 717,1165 449,269 986,449 1524,449 806,0 2061,-359 3585,-896l806 6901c-2061,896 -4392,1345 -7081,1345 -1614,0 -3048,-269 -4303,-806 -1255,-538 -2241,-1255 -2869,-2061 -537,-897 -986,-2062 -1255,-3497 -178,-1075 -268,-3137 -268,-6275l0 -14610 -4034 0 0 -7082 4034 0 0 -6722 8964 -5199 0 11921 6005 0 1 0zm25636 22857l8874 1524c-1165,3226 -2958,5736 -5378,7350 -2420,1703 -5558,2600 -9233,2600 -5826,0 -10129,-1882 -12998,-5736 -2151,-3048 -3316,-6902 -3316,-11563 0,-5558 1524,-9949 4393,-13087 2869,-3137 6632,-4750 11025,-4750 5020,0 8964,1703 11832,4931 2868,3316 4302,8425 4123,15237l-22229 0c90,2600 806,4662 2151,6096 1346,1523 3048,2241 5109,2241 1434,0 2600,-359 3497,-1165 986,-718 1702,-1973 2151,-3675l-1 -3zm537 -8964c-90,-2600 -717,-4571 -1972,-5916 -1255,-1255 -2869,-1973 -4662,-1973 -1972,0 -3496,718 -4750,2151 -1345,1346 -1882,3317 -1882,5737l13266 0 0 1zm12908 10039l8964 -1345c359,1793 1075,3048 2241,3944 1165,896 2779,1345 4930,1345 2242,0 4034,-359 5199,-1255 718,-538 1165,-1345 1165,-2330 0,-718 -268,-1255 -627,-1703 -449,-448 -1434,-806 -2958,-1165 -7171,-1613 -11743,-3047 -13714,-4302 -2600,-1883 -3944,-4393 -3944,-7619 0,-2869 1165,-5378 3407,-7350 2330,-1973 5916,-2958 10756,-2958 4572,0 7978,806 10219,2241 2242,1524 3765,3766 4572,6633l-8337 1614c-359,-1345 -1075,-2330 -2061,-3048 -986,-717 -2420,-986 -4303,-986 -2330,0 -3944,269 -5020,896 -627,538 -986,1075 -986,1883 0,627 269,1165 896,1614 806,537 3585,1345 8337,2420 4661,1075 7977,2420 9860,4034 1882,1523 2779,3765 2779,6543 0,3138 -1255,5737 -3854,7978 -2600,2242 -6364,3317 -11384,3317 -4572,0 -8247,-987 -10847,-2779 -2689,-1883 -4481,-4393 -5289,-7619l-1 -3z"/>
   <path class="fil2" d="M123698 96269l-8874 0 0 -33524 8247 0 0 4750c1345,-2241 2688,-3765 3765,-4481 1165,-717 2420,-1075 3854,-1075 2061,0 3943,538 5826,1703l-2689 7709c-1524,-897 -2869,-1434 -4212,-1434 -1255,0 -2242,359 -3138,1075 -896,627 -1524,1882 -2061,3675 -449,1792 -718,5558 -718,11294l0 10308zm36124 -10667l8874 1524c-1165,3226 -2958,5736 -5378,7350 -2510,1703 -5558,2600 -9233,2600 -5826,0 -10219,-1882 -12998,-5736 -2241,-3048 -3316,-6902 -3316,-11563 0,-5558 1434,-9949 4393,-13087 2868,-3137 6544,-4750 11025,-4750 5020,0 8964,1703 11831,4931 2869,3316 4213,8425 4124,15237l-22229 0c0,2600 718,4662 2151,6096 1345,1523 3048,2241 5109,2241 1345,0 2510,-359 3497,-1165 986,-718 1702,-1973 2151,-3675l-1 -3zm537 -8964c-90,-2600 -717,-4571 -2061,-5916 -1255,-1255 -2779,-1973 -4572,-1973 -1972,0 -3585,718 -4840,2151 -1255,1346 -1882,3317 -1792,5737l13266 0 -1 1zm22678 -3675l-8068 -1434c897,-3226 2510,-5647 4662,-7260 2241,-1524 5557,-2330 9860,-2330 4034,0 6901,538 8874,1434 1973,896 3316,2151 4124,3585 806,1434 1165,4034 1165,7978l-90 10307c0,2958 179,5199 449,6544 268,1434 806,2958 1614,4482l-8874 0c-179,-538 -449,-1434 -807,-2600 -178,-538 -268,-897 -358,-1075 -1524,1523 -3138,2600 -4841,3406 -1702,717 -3585,1075 -5557,1075 -3407,0 -6185,-986 -8157,-2779 -1972,-1882 -2957,-4303 -2957,-7171 0,-1883 449,-3585 1345,-5109 896,-1434 2151,-2600 3854,-3407 1613,-717 3943,-1433 6991,-2061 4213,-717 7081,-1524 8695,-2151l0 -896c0,-1703 -448,-2958 -1255,-3676 -896,-717 -2510,-1075 -4840,-1075 -1524,0 -2779,359 -3675,987 -896,537 -1614,1702 -2151,3226l-3 0zm11922 7172c-1165,448 -2958,896 -5468,1433 -2420,538 -4034,987 -4840,1524 -1165,806 -1703,1883 -1703,3138 0,1255 449,2330 1345,3226 987,896 2152,1345 3586,1345 1613,0 3137,-537 4571,-1614 1075,-806 1792,-1702 2151,-2869 179,-806 359,-2241 359,-4392l0 -1793 -1 2zm17479 16134l0 -46343 8874 0 0 46343 -8874 0zm241211 0l0 -8874 8874 0 0 8874 -8874 0zm47239 -23575l-8696 1524c-358,-1702 -986,-3047 -2061,-3944 -986,-896 -2330,-1345 -4034,-1345 -2241,0 -3944,806 -5289,2330 -1345,1524 -1972,4034 -1972,7619 0,4034 627,6813 1972,8515 1345,1614 3138,2420 5378,2420 1703,0 3138,-448 4213,-1433 1075,-987 1792,-2600 2241,-4930l8695 1433c-896,4034 -2600,7082 -5199,9143 -2600,2061 -6005,3048 -10307,3048 -4931,0 -8874,-1524 -11743,-4662 -2958,-3137 -4393,-7350 -4393,-12908 0,-5467 1434,-9860 4393,-12907 2957,-3138 6901,-4662 11921,-4662 4034,0 7260,896 9681,2689 2420,1703 4212,4393 5198,8068l2 2zm4750 6364c0,-2957 717,-5826 2151,-8605 1434,-2779 3496,-4840 6185,-6275 2689,-1524 5648,-2242 8964,-2242 5020,0 9233,1703 12459,4931 3227,3316 4840,7529 4840,12549 0,5109 -1613,9322 -4930,12639 -3226,3316 -7350,5020 -12370,5020 -3048,0 -6005,-718 -8784,-2061 -2779,-1434 -4930,-3497 -6364,-6186 -1434,-2688 -2151,-5916 -2151,-9770zm9054 449c0,3316 806,5916 2420,7619 1524,1792 3496,2689 5826,2689 2330,0 4303,-897 5827,-2689 1613,-1703 2330,-4303 2330,-7709 0,-3226 -718,-5826 -2330,-7529 -1524,-1792 -3497,-2689 -5827,-2689 -2330,0 -4302,897 -5826,2689 -1614,1703 -2420,4303 -2420,7619zm31911 -16762l8156 0 0 4572c2958,-3585 6454,-5378 10488,-5378 2151,0 4034,449 5558,1345 1613,896 2868,2241 3943,4034 1434,-1793 3048,-3138 4750,-4034 1703,-896 3497,-1345 5468,-1345 2420,0 4571,538 6275,1524 1703,986 2958,2510 3765,4393 628,1433 987,3765 987,6991l0 21423 -8964 0 0 -19182c0,-3316 -269,-5467 -897,-6454 -806,-1255 -2061,-1882 -3765,-1882 -1255,0 -2420,359 -3496,1165 -1075,717 -1883,1882 -2420,3316 -449,1434 -718,3765 -718,6902l0 16134 -8874 0 0 -18376c0,-3226 -178,-5377 -448,-6275 -359,-986 -807,-1703 -1524,-2151 -628,-449 -1524,-718 -2689,-718 -1345,0 -2600,359 -3675,1165 -1075,718 -1883,1793 -2330,3138 -538,1434 -718,3675 -718,6901l0 16314 -8874 0 0 -33523 2 1z"/>
   <polygon class="fil3" points="52796,0 120023,11383 165020,42487 109535,45535 109088,45176 "/>
   <polygon class="fil4" points="15059,40874 49659,89 106668,45894 97884,45714 50018,7798 22678,40964 "/>
  </g>
 </g>
</svg>
